<svg width="278" height="70" viewBox="0 0 278 84" fill="none" xmlns="http://www.w3.org/2000/svg">
<rect width="278" height="84" fill="#242424"/>
<path d="M69.3375 35.42C68.1339 29.462 64.8498 24.097 60.0462 20.2414C55.2426 16.3857 49.2175 14.2786 43 14.28C32.6442 14.28 23.65 20.02 19.1708 28.42C13.9042 28.9759 9.03361 31.4132 5.495 35.2636C1.9564 39.114 -0.000615265 44.1059 1.45099e-07 49.28C1.45099e-07 60.865 9.63917 70.28 21.5 70.28H68.0833C77.9733 70.28 86 62.44 86 52.78C86 43.54 78.6542 36.05 69.3375 35.42Z" fill="#BEF3FF"/>
<path d="M36.2294 60.8281C34.3073 60.4026 32.817 59.3699 31.7585 57.7299C30.7 56.09 30.3885 54.3313 30.8242 52.4539C31.2599 50.5765 32.3172 49.1209 33.9962 48.087C35.6752 47.0531 37.4757 46.7489 39.3978 47.1744C40.0676 47.3227 40.6681 47.5376 41.1992 47.8191C41.7312 48.102 42.223 48.4579 42.6746 48.8868L46.853 30.881L57.337 33.2021L55.7528 40.0289L48.7635 38.4815L44.803 55.5486C44.3673 57.426 43.31 58.8817 41.631 59.9156C39.952 60.9495 38.1515 61.2536 36.2294 60.8281Z" fill="#FF5050"/>
<path d="M104.752 53.512C101.701 53.512 99.408 52.456 97.872 50.344C96.3573 48.232 95.6 45.4907 95.6 42.12C95.6 38.7493 96.3573 36.008 97.872 33.896C99.408 31.784 101.701 30.728 104.752 30.728C106.757 30.728 108.581 31.2293 110.224 32.232L109.328 34.376C107.92 33.5013 106.395 33.064 104.752 33.064C102.555 33.064 100.901 33.9067 99.792 35.592C98.704 37.256 98.16 39.432 98.16 42.12C98.16 44.808 98.704 46.9947 99.792 48.68C100.901 50.344 102.555 51.176 104.752 51.176C106.565 51.176 108.197 50.728 109.648 49.832L110.768 51.816C108.933 52.9467 106.928 53.512 104.752 53.512ZM116.534 50.696H125.398V53H113.974V31.24H116.534V50.696ZM129.278 50.344C127.764 48.232 127.006 45.4907 127.006 42.12C127.006 38.7493 127.764 36.008 129.278 33.896C130.814 31.784 133.108 30.728 136.158 30.728C138.228 30.728 139.966 31.2507 141.374 32.296C142.804 33.3413 143.828 34.696 144.446 36.36C145.065 38.024 145.374 39.944 145.374 42.12C145.374 44.296 145.065 46.216 144.446 47.88C143.828 49.544 142.804 50.8987 141.374 51.944C139.966 52.9893 138.228 53.512 136.158 53.512C133.108 53.512 130.814 52.456 129.278 50.344ZM131.198 35.592C130.11 37.256 129.566 39.432 129.566 42.12C129.566 44.808 130.11 46.9947 131.198 48.68C132.308 50.344 133.961 51.176 136.158 51.176C138.377 51.176 140.041 50.3333 141.15 48.648C142.26 46.9627 142.814 44.7867 142.814 42.12C142.814 39.4533 142.26 37.2773 141.15 35.592C140.041 33.9067 138.377 33.064 136.158 33.064C133.961 33.064 132.308 33.9067 131.198 35.592ZM149.369 31.24H151.929V45.064C151.929 46.8773 152.377 48.3493 153.273 49.48C154.19 50.6107 155.566 51.176 157.401 51.176C159.235 51.176 160.611 50.6107 161.529 49.48C162.446 48.3493 162.905 46.8773 162.905 45.064V31.24H165.465V44.904C165.465 47.4427 164.793 49.512 163.449 51.112C162.105 52.712 160.089 53.512 157.401 53.512C154.713 53.512 152.697 52.712 151.353 51.112C150.03 49.512 149.369 47.4427 149.369 44.904V31.24ZM170.755 53V31.24H178.531C181.603 31.24 183.907 32.2533 185.443 34.28C186.979 36.3067 187.747 38.92 187.747 42.12C187.747 45.32 186.979 47.9333 185.443 49.96C183.907 51.9867 181.603 53 178.531 53H170.755ZM178.531 33.544H173.315V50.696H178.531C180.75 50.696 182.414 49.9067 183.523 48.328C184.632 46.728 185.187 44.6587 185.187 42.12C185.187 39.5813 184.632 37.5227 183.523 35.944C182.414 34.344 180.75 33.544 178.531 33.544ZM191.279 53L192.079 31.24H195.055L201.743 46.568L208.463 31.24H211.439L212.239 53H209.679L209.039 35.976L203.087 49.608H200.431L194.447 35.976L193.839 53H191.279ZM217.213 31.24H219.773V45.064C219.773 46.8773 220.221 48.3493 221.117 49.48C222.034 50.6107 223.41 51.176 225.245 51.176C227.079 51.176 228.455 50.6107 229.373 49.48C230.29 48.3493 230.749 46.8773 230.749 45.064V31.24H233.309V44.904C233.309 47.4427 232.637 49.512 231.293 51.112C229.949 52.712 227.933 53.512 225.245 53.512C222.557 53.512 220.541 52.712 219.197 51.112C217.874 49.512 217.213 47.4427 217.213 44.904V31.24ZM238.151 48.648C238.791 49.352 239.623 49.9387 240.647 50.408C241.692 50.8773 242.823 51.112 244.039 51.112C245.276 51.112 246.332 50.792 247.207 50.152C248.103 49.512 248.551 48.616 248.551 47.464C248.551 46.2907 248.167 45.3733 247.399 44.712C246.652 44.0507 245.735 43.5493 244.647 43.208C243.58 42.8667 242.503 42.504 241.415 42.12C240.348 41.736 239.431 41.1067 238.663 40.232C237.916 39.336 237.543 38.1627 237.543 36.712C237.543 34.728 238.183 33.2347 239.463 32.232C240.764 31.2293 242.289 30.728 244.039 30.728C246.449 30.728 248.444 31.2293 250.023 32.232L248.743 34.28C247.527 33.512 245.948 33.128 244.007 33.128C242.983 33.128 242.076 33.416 241.287 33.992C240.497 34.568 240.103 35.4213 240.103 36.552C240.103 37.9813 240.839 39.0267 242.311 39.688C242.951 39.9867 243.655 40.2533 244.423 40.488C245.212 40.7227 245.991 41 246.759 41.32C247.548 41.64 248.263 42.024 248.903 42.472C250.375 43.4747 251.111 45.0427 251.111 47.176C251.111 49.288 250.428 50.8773 249.063 51.944C247.719 52.9893 246.012 53.512 243.943 53.512C241.191 53.512 238.769 52.5307 236.679 50.568L238.151 48.648ZM254.943 53V31.24H257.503V53H254.943ZM271.127 53.512C268.076 53.512 265.783 52.456 264.247 50.344C262.732 48.232 261.975 45.4907 261.975 42.12C261.975 38.7493 262.732 36.008 264.247 33.896C265.783 31.784 268.076 30.728 271.127 30.728C273.132 30.728 274.956 31.2293 276.599 32.232L275.703 34.376C274.295 33.5013 272.77 33.064 271.127 33.064C268.93 33.064 267.276 33.9067 266.167 35.592C265.079 37.256 264.535 39.432 264.535 42.12C264.535 44.808 265.079 46.9947 266.167 48.68C267.276 50.344 268.93 51.176 271.127 51.176C272.94 51.176 274.572 50.728 276.023 49.832L277.143 51.816C275.308 52.9467 273.303 53.512 271.127 53.512Z" fill="#FEFFFF"/>
</svg>
