<svg width="30" height="30" viewBox="0 0 28 27" fill="none" xmlns="http://www.w3.org/2000/svg">
<path fill-rule="evenodd" clip-rule="evenodd" d="M14 0.875C10.884 0.87542 7.86982 1.98442 5.49659 4.00362C3.12337 6.02282 1.54594 8.82049 1.04648 11.8962C0.547013 14.9719 1.1581 18.125 2.77043 20.7914C4.38276 23.4578 6.89114 25.4636 9.84688 26.45C10.5031 26.5719 10.7844 26.1687 10.7844 25.8219V23.5906C7.1375 24.3781 6.36875 21.8281 6.36875 21.8281C6.1123 21.0245 5.57255 20.3415 4.85 19.9062C3.65938 19.1 4.94375 19.1094 4.94375 19.1094C5.35963 19.1681 5.75658 19.3211 6.10429 19.5567C6.452 19.7923 6.74127 20.1043 6.95 20.4687C7.31314 21.1201 7.92007 21.6005 8.63734 21.8044C9.35462 22.0084 10.1235 21.9191 10.775 21.5562C10.8279 20.8911 11.1212 20.2679 11.6 19.8031C8.69375 19.4656 5.62813 18.3406 5.62813 13.3156C5.60687 12.0105 6.09053 10.7477 6.97813 9.79063C6.57637 8.66018 6.62335 7.41873 7.10938 6.32187C7.10938 6.32187 8.20625 5.96562 10.7188 7.6625C12.867 7.07651 15.133 7.07651 17.2813 7.6625C19.7844 5.96562 20.8813 6.32187 20.8813 6.32187C21.3673 7.41873 21.4143 8.66018 21.0125 9.79063C21.9001 10.7477 22.3838 12.0105 22.3625 13.3156C22.3625 18.3594 19.2969 19.4656 16.3719 19.7937C16.6852 20.1113 16.9268 20.4924 17.0805 20.9112C17.2341 21.3301 17.2962 21.777 17.2625 22.2219V25.8219C17.2625 26.2531 17.4969 26.5812 18.2 26.45C21.1596 25.4624 23.6706 23.4527 25.2827 20.7814C26.8948 18.11 27.5025 14.9518 26.9969 11.873C26.4912 8.79417 24.9054 5.99617 22.5236 3.98072C20.1419 1.96528 17.12 0.864221 14 0.875V0.875Z" fill="black"/>
</svg>
