<svg width="30" height="30" viewBox="0 0 24 24" fill="none" xmlns="http://www.w3.org/2000/svg">
<path d="M11.7188 6.09375C10.6062 6.09375 9.51869 6.42365 8.59367 7.04173C7.66864 7.65982 6.94767 8.53832 6.52193 9.56616C6.09619 10.594 5.98479 11.725 6.20183 12.8161C6.41888 13.9073 6.9546 14.9096 7.74127 15.6962C8.52794 16.4829 9.53022 17.0186 10.6214 17.2357C11.7125 17.4527 12.8435 17.3413 13.8713 16.9156C14.8992 16.4898 15.7777 15.7689 16.3958 14.8438C17.0138 13.9188 17.3437 12.8313 17.3438 11.7188C17.3437 10.2269 16.7511 8.79617 15.6962 7.74127C14.6413 6.68638 13.2106 6.09375 11.7188 6.09375ZM11.7188 15.4688C10.9771 15.4688 10.252 15.2488 9.63536 14.8368C9.01868 14.4247 8.53803 13.839 8.2542 13.1538C7.97037 12.4686 7.89611 11.7146 8.0408 10.9872C8.1855 10.2597 8.54265 9.59155 9.0671 9.0671C9.59155 8.54265 10.2597 8.1855 10.9872 8.0408C11.7146 7.89611 12.4686 7.97037 13.1538 8.2542C13.839 8.53803 14.4247 9.01868 14.8368 9.63536C15.2488 10.252 15.4688 10.9771 15.4688 11.7188C15.4657 12.7124 15.0696 13.6644 14.367 14.367C13.6644 15.0696 12.7124 15.4657 11.7188 15.4688ZM16.875 0H6.5625C4.82202 0 3.15282 0.691404 1.92211 1.92211C0.691404 3.15282 0 4.82202 0 6.5625V16.875C0 18.6155 0.691404 20.2847 1.92211 21.5154C3.15282 22.7461 4.82202 23.4375 6.5625 23.4375H16.875C18.6155 23.4375 20.2847 22.7461 21.5154 21.5154C22.7461 20.2847 23.4375 18.6155 23.4375 16.875V6.5625C23.4375 4.82202 22.7461 3.15282 21.5154 1.92211C20.2847 0.691404 18.6155 0 16.875 0V0ZM21.5625 16.875C21.5625 17.4906 21.4413 18.1001 21.2057 18.6688C20.9701 19.2375 20.6248 19.7543 20.1896 20.1896C19.7543 20.6248 19.2375 20.9701 18.6688 21.2057C18.1001 21.4413 17.4906 21.5625 16.875 21.5625H6.5625C5.94693 21.5625 5.33739 21.4413 4.76867 21.2057C4.19996 20.9701 3.68321 20.6248 3.24794 20.1896C2.81266 19.7543 2.46738 19.2375 2.23181 18.6688C1.99625 18.1001 1.875 17.4906 1.875 16.875V6.5625C1.875 5.3193 2.36886 4.12701 3.24794 3.24794C4.12701 2.36886 5.3193 1.875 6.5625 1.875H16.875C17.4906 1.875 18.1001 1.99625 18.6688 2.23181C19.2375 2.46738 19.7543 2.81266 20.1896 3.24794C20.6248 3.68321 20.9701 4.19996 21.2057 4.76867C21.4413 5.33739 21.5625 5.94693 21.5625 6.5625V16.875ZM19.2188 5.625C19.2188 5.90313 19.1363 6.17501 18.9818 6.40627C18.8272 6.63753 18.6076 6.81777 18.3506 6.92421C18.0937 7.03064 17.8109 7.05849 17.5382 7.00423C17.2654 6.94997 17.0148 6.81604 16.8181 6.61937C16.6215 6.4227 16.4875 6.17213 16.4333 5.89935C16.379 5.62656 16.4069 5.34381 16.5133 5.08685C16.6197 4.82989 16.8 4.61027 17.0312 4.45575C17.2625 4.30122 17.5344 4.21875 17.8125 4.21875C18.1855 4.21875 18.5431 4.36691 18.8069 4.63063C19.0706 4.89435 19.2188 5.25204 19.2188 5.625Z" fill="black"/>
</svg>
